#!OML:ASF F:\VICON\USERDATA\INSTALL\rory3\rory3.ASF
:FULLY-SPECIFIED
:DEGREES
1085
root -4.7522 18.7141 -1.52818 360.05 -15.8022 -358.076
lowerback 4.73873 2.52697 -1.38005
upperback 0.768047 3.23731 -2.62011
thorax -1.78838 1.6159 -2.11927
lowerneck -9.97202 2.45261 -4.93688
upperneck 24.1841 3.40549 4.07939
head 9.04027 1.56831 2.58864
rclavicle 5.06901e-015 -1.90833e-014
rhumerus -33.3702 3.77848 -77.9724
rradius 38.8653
rwrist 15.7455
rhand -30.728 5.65809
rfingers 7.12502
rthumb -4.0205 -24.2837
lclavicle 5.06901e-015 -1.90833e-014
lhumerus -38.6428 14.0883 67.934
lradius 26.0576
lwrist -14.1393
lhand -23.6364 25.4773
lfingers 7.12502
lthumb 2.82855 55.4383
rfemur 2.20668 11.0125 21.1368
rtibia 21.2038
rfoot -26.4649 -33.377
rtoes 0.0469791
lfemur -10.3644 -5.20038 -14.9666
ltibia 18.7385
lfoot -20.8163 30.7475
ltoes 18.6827
1086
root -4.71278 18.7192 -1.48358 359.931 -15.3711 -357.945
lowerback 4.79671 2.56881 -1.51066
upperback 0.80503 3.28232 -2.76434
thorax -1.78044 1.63874 -2.1994
lowerneck -10.2108 2.56937 -5.00793
upperneck 24.8624 3.45951 4.62775
head 9.30259 1.63771 2.8192
rclavicle -1.93318e-014 5.56597e-015
rhumerus -33.5281 3.59524 -78.1172
rradius 38.9635
rwrist 15.8882
rhand -30.4115 5.23957
rfingers 7.12502
rthumb -3.71483 -24.7078
lclavicle -1.93318e-014 5.56597e-015
lhumerus -38.2723 13.8482 68.1307
lradius 26.1223
lwrist -13.9223
lhand -23.5836 25.358
lfingers 7.12502
lthumb 2.87948 55.3183
rfemur 2.37297 10.7977 20.8808
rtibia 21.4044
rfoot -26.493 -33.3837
rtoes -0.393513
lfemur -10.1925 -5.01272 -15.3123
ltibia 18.6479
lfoot -20.262 30.3257
ltoes 18.3637
1087
root -4.66964 18.7254 -1.43681 359.855 -14.9486 -357.89
lowerback 4.83139 2.60201 -1.58794
upperback 0.817849 3.31975 -2.85848
thorax -1.78445 1.65765 -2.25694
lowerneck -10.1096 2.7114 -4.86245
upperneck 25.1992 3.56876 4.84858
head 9.39207 1.72168 2.88976
rclavicle 4.17448e-014 0
rhumerus -33.6703 3.53619 -78.2311
rradius 38.8929
rwrist 15.9965
rhand -30.4302 5.94422
rfingers 7.12502
rthumb -3.73291 -24.0028
lclavicle 4.17448e-014 0
lhumerus -38.0275 13.835 68.2401
lradius 26.1731
lwrist -13.9558
lhand -23.3574 25.535
lfingers 7.12502
lthumb 3.09799 55.4923
rfemur 2.54406 10.4226 20.6456
rtibia 21.5633
rfoot -26.2615 -33.2954
rtoes -1.11739
lfemur -10.0643 -5.08561 -15.5887
ltibia 18.6251
lfoot -19.9832 30.0758
ltoes 17.75
1088
root -4.62524 18.7312 -1.3917 359.839 -14.5715 -357.981
lowerback 4.86802 2.6418 -1.55106
upperback 0.835395 3.37365 -2.88059
thorax -1.78196 1.68442 -2.30497
lowerneck -9.99957 2.87121 -4.7639
upperneck 25.4665 3.71914 5.04432
head 9.45303 1.81913 2.96177
rclavicle 4.32854e-014 -3.73715e-014
rhumerus -33.7615 3.47749 -78.2505
rradius 38.7586
rwrist 16.261
rhand -30.3116 6.32053
rfingers 7.12502
rthumb -3.61837 -23.6285
lclavicle 4.32854e-014 -3.73715e-014
lhumerus -37.8287 13.7695 68.4441
lradius 26.3132
lwrist -13.851
lhand -23.2741 25.6518
lfingers 7.12502
lthumb 3.17842 55.6079
rfemur 2.7089 10.2305 20.5918
rtibia 21.6763
rfoot -26.2 -33.2895
rtoes -1.39608
lfemur -9.9942 -4.93941 -15.7052
ltibia 18.6436
lfoot -19.3393 29.7454
ltoes 16.5179
1089
root -4.57989 18.7384 -1.34436 359.836 -14.1263 -358.08
lowerback 4.87382 2.6628 -1.46957
upperback 0.873318 3.40626 -2.92353
thorax -1.7379 1.70049 -2.39561
lowerneck -9.98302 2.99545 -4.63766
upperneck 25.7642 3.82255 5.2209
head 9.54673 1.8956 3.02162
rclavicle -3.91606e-014 -1.74931e-014
rhumerus -33.866 3.28975 -78.2773
rradius 38.6702
rwrist 16.5893
rhand -29.9887 5.70933
rfingers 7.12502
rthumb -3.30658 -24.2448
lclavicle -3.91606e-014 -1.74931e-014
lhumerus -37.5907 13.6171 68.6771
lradius 26.5054
lwrist -13.6997
lhand -23.232 25.5675
lfingers 7.12502
lthumb 3.21902 55.5229
rfemur 2.88991 10.1629 20.5747
rtibia 21.7473
rfoot -26.2249 -33.4204
rtoes -1.45171
lfemur -9.98632 -4.888 -15.8123
ltibia 18.733
lfoot -18.4593 29.4693
ltoes 14.8479
1090
root -4.53075 18.7489 -1.29322 359.894 -13.6452 -358.195
lowerback 4.79211 2.69127 -1.31338
upperback 0.882186 3.45463 -2.98366
thorax -1.66873 1.72434 -2.54272
lowerneck -9.88992 3.07398 -4.55635
upperneck 26.1014 3.84091 5.49583
head 9.64118 1.93864 3.11458
rclavicle -1.78906e-015 3.97569e-015
rhumerus -34.0542 3.0343 -78.3097
rradius 38.5977
rwrist 16.9591
rhand -29.9873 5.59487
rfingers 7.12502
rthumb -3.30523 -24.3593
lclavicle -1.78906e-015 3.97569e-015
lhumerus -37.4146 13.5097 68.8503
lradius 26.667
lwrist -13.9017
lhand -23.0432 25.451
lfingers 7.12502
lthumb 3.40142 55.4036
rfemur 2.98432 9.93826 20.5065
rtibia 21.8239
rfoot -25.7569 -33.5888
rtoes -2.14798
lfemur -10.0463 -4.99706 -15.9206
ltibia 18.8613
lfoot -17.8687 29.2709
ltoes 13.8676
1091
root -4.47984 18.7601 -1.24365 359.995 -13.2793 -358.447
lowerback 4.65952 2.74803 -1.03953
upperback 0.871835 3.54883 -2.97686
thorax -1.58595 1.77093 -2.68684
lowerneck -9.73254 3.16087 -4.55454
upperneck 26.454 3.87273 5.81232
head 9.72521 1.98473 3.23642
rclavicle -1.19271e-014 -1.98785e-014
rhumerus -34.2638 2.90494 -78.302
rradius 38.5657
rwrist 17.342
rhand -29.8381 5.75271
rfingers 7.12502
rthumb -3.16107 -24.2036
lclavicle -1.19271e-014 -1.98785e-014
lhumerus -37.2974 13.3138 69.1003
lradius 26.7834
lwrist -13.9772
lhand -23.0031 25.1802
lfingers 7.12502
lthumb 3.44013 55.1322
rfemur 3.00652 9.68139 20.5447
rtibia 21.9416
rfoot -25.2049 -33.6392
rtoes -2.91659
lfemur -10.0894 -5.05268 -15.8877
ltibia 18.9574
lfoot -17.7255 29.0637
ltoes 13.8537
1092
root -4.42812 18.7695 -1.19628 360.063 -12.8802 -358.624
lowerback 4.579 2.78717 -0.892199
upperback 0.86233 3.61126 -2.95336
thorax -1.54079 1.802 -2.74404
lowerneck -9.62084 3.25993 -4.5504
upperneck 26.7775 3.9368 6.07591
head 9.80751 2.04111 3.34361
rclavicle -6.24681e-014 7.15625e-015
rhumerus -34.4677 2.84649 -78.2541
rradius 38.5866
rwrist 17.7346
rhand -28.7509 5.06168
rfingers 7.12502
rthumb -2.11118 -24.9076
lclavicle -6.24681e-014 7.15625e-015
lhumerus -37.1297 13.1209 69.417
lradius 26.8493
lwrist -13.8407
lhand -23.2985 24.4438
lfingers 7.12502
lthumb 3.1548 54.4002
rfemur 3.04394 9.34279 20.494
rtibia 22.091
rfoot -25.0943 -33.4763
rtoes -3.11685
lfemur -10.1413 -4.95505 -15.9434
ltibia 19.047
lfoot -17.6314 28.7052
ltoes 14.0104
1093
root -4.37384 18.7766 -1.14401 360.079 -12.4357 -358.607
lowerback 4.52908 2.80209 -0.958469
upperback 0.856015 3.62945 -2.94831
thorax -1.52313 1.81148 -2.70025
lowerneck -9.58416 3.32528 -4.57913
upperneck 27.1145 3.98018 6.27055
head 9.91223 2.0774 3.43362
rclavicle 9.69075e-015 1.59028e-015
rhumerus -34.6393 2.84108 -78.2016
rradius 38.4603
rwrist 18.1597
rhand -28.0878 4.8983
rfingers 7.12502
rthumb -1.47072 -25.0764
lclavicle 9.69075e-015 1.59028e-015
lhumerus -37.0343 13.0677 69.7467
lradius 27.018
lwrist -13.7429
lhand -23.6539 23.781
lfingers 7.12502
lthumb 2.81161 53.7422
rfemur 3.09776 8.91214 20.2004
rtibia 22.2893
rfoot -24.864 -33.2446
rtoes -3.57377
lfemur -10.1703 -4.98821 -16.2333
ltibia 19.1462
lfoot -17.4162 28.4594
ltoes 13.8041
1094
root -4.31864 18.7832 -1.08705 360.048 -12.0793 -358.606
lowerback 4.43137 2.83815 -0.97997
upperback 0.899859 3.68074 -2.95218
thorax -1.4226 1.83791 -2.68777
lowerneck -9.54303 3.35905 -4.60307
upperneck 27.3917 3.99379 6.4056
head 9.99885 2.09426 3.49689
rclavicle 3.97569e-015 -2.46493e-014
rhumerus -34.7139 2.87248 -78.1918
rradius 38.128
rwrist 18.6609
rhand -28.3179 5.03545
rfingers 7.12502
rthumb -1.69296 -24.9376
lclavicle 3.97569e-015 -2.46493e-014
lhumerus -36.9571 12.9488 70.0853
lradius 27.2488
lwrist -13.6269
lhand -23.673 23.7362
lfingers 7.12502
lthumb 2.79316 53.6976
rfemur 3.17646 8.54764 19.9282
rtibia 22.5477
rfoot -24.3141 -33.1333
rtoes -4.6582
lfemur -10.0901 -5.08827 -16.518
ltibia 19.2174
lfoot -16.9945 28.3924
ltoes 13.0502
